<svg width="40" height="40" viewBox="0 0 40 40" fill="none" xmlns="http://www.w3.org/2000/svg">
  <path d="M10 10C10 7.23858 12.2386 5 15 5H25C27.7614 5 30 7.23858 30 10V15C30 17.7614 27.7614 20 25 20H15C12.2386 20 10 17.7614 10 15V10Z" fill="#10B981"/>
  <path d="M5 25C5 22.2386 7.23858 20 10 20H20C22.7614 20 25 22.2386 25 25V30C25 32.7614 22.7614 35 20 35H10C7.23858 35 5 32.7614 5 30V25Z" fill="#1D61FF"/>
  <path d="M15 15C15 12.2386 17.2386 10 20 10H30C32.7614 10 35 12.2386 35 15V20C35 22.7614 32.7614 25 30 25H20C17.2386 25 15 22.2386 15 20V15Z" fill="#1D61FF"/>
</svg>
